<?xml version="1.0" standalone="no"?>
<!DOCTYPE svg PUBLIC "-//W3C//DTD SVG 20010904//EN"
 "http://www.w3.org/TR/2001/REC-SVG-20010904/DTD/svg10.dtd">
<svg version="1.0" xmlns="http://www.w3.org/2000/svg"
 width="912.000000pt" height="940.000000pt" viewBox="0 0 912.000000 940.000000"
 preserveAspectRatio="xMidYMid meet">

<g transform="translate(0.000000,940.000000) scale(0.100000,-0.100000)"
fill="#000000" stroke="none">
<path d="M4245 9160 c-417 -36 -860 -136 -1245 -282 -1267 -479 -2231 -1484
-2640 -2753 -88 -270 -166 -665 -190 -948 -13 -164 -13 -566 1 -722 21 -245
86 -566 171 -840 51 -166 205 -546 231 -571 7 -7 35 -19 64 -28 28 -10 63 -26
77 -37 13 -10 27 -19 30 -19 3 0 -18 55 -46 122 -172 421 -267 798 -320 1283
-20 181 -17 667 5 825 69 494 150 802 314 1194 198 473 510 931 901 1324 726
726 1722 1169 2772 1232 446 27 995 -46 1450 -194 661 -214 1226 -567 1720
-1072 712 -729 1116 -1639 1191 -2682 41 -573 -80 -1295 -315 -1886 -31 -77
-56 -140 -56 -141 0 -1 138 62 160 74 15 8 55 95 129 281 135 335 235 740 272
1105 17 166 15 642 -4 830 -49 476 -184 965 -383 1383 -387 814 -976 1468
-1737 1926 -508 306 -1126 515 -1717 581 -168 19 -681 28 -835 15z"/>
<path d="M4517 8629 c-16 -50 -34 -92 -40 -94 -7 -3 -56 -8 -110 -12 l-97 -8
80 -63 c44 -34 80 -68 80 -75 0 -6 -11 -47 -25 -90 -14 -43 -25 -84 -25 -92 0
-9 33 8 86 46 l86 60 85 -56 c46 -31 86 -55 87 -53 2 1 -10 46 -25 98 l-28 95
31 25 c17 14 56 44 87 68 l54 42 -50 0 c-27 0 -77 3 -110 6 -57 6 -61 9 -71
38 -32 97 -56 156 -61 156 -3 0 -19 -41 -34 -91z"/>
<path d="M3592 8304 c-16 -11 -19 -20 -13 -41 6 -24 13 -28 41 -28 31 0 35 3
37 31 3 40 -33 61 -65 38z"/>
<path d="M5473 8309 c-18 -7 -22 -15 -20 -41 2 -28 7 -33 31 -36 31 -4 46 10
46 45 0 28 -28 43 -57 32z"/>
<path d="M2727 8073 c-2 -5 -10 -25 -16 -45 -12 -36 -14 -38 -57 -38 -24 0
-44 -4 -44 -9 0 -5 16 -23 36 -39 l36 -29 -16 -52 c-16 -56 -16 -56 42 -13
l32 25 41 -27 c22 -15 43 -26 45 -23 3 2 0 16 -6 31 -17 46 -12 73 20 99 17
14 30 28 30 31 0 3 -21 6 -46 6 -44 0 -46 1 -65 45 -20 46 -25 51 -32 38z"/>
<path d="M6352 8037 c-20 -46 -22 -47 -66 -47 -25 0 -46 -2 -46 -4 0 -2 15
-19 34 -38 l35 -35 -15 -43 c-8 -23 -13 -45 -10 -47 2 -3 21 7 42 21 l37 25
44 -30 c48 -33 53 -27 33 40 -9 31 -7 36 26 66 38 35 33 45 -27 45 -23 0 -32
6 -39 28 -26 71 -25 70 -48 19z"/>
<path d="M4455 7845 c-49 -17 -148 -52 -220 -77 -71 -25 -285 -100 -475 -167
-190 -67 -380 -133 -423 -148 -43 -14 -75 -28 -73 -31 3 -2 52 -21 108 -41
l103 -36 3 -236 2 -235 -25 -24 c-33 -31 -35 -98 -4 -126 13 -12 18 -25 14
-39 -7 -28 -42 -266 -50 -347 l-6 -67 36 -7 c43 -8 134 1 148 15 5 5 -4 90
-24 219 l-32 210 21 27 c12 15 22 36 22 47 0 27 -26 74 -45 81 -13 6 -15 38
-15 232 0 124 4 225 8 225 9 0 115 -36 292 -100 63 -23 158 -57 210 -75 52
-19 190 -68 305 -109 116 -42 215 -76 220 -76 6 0 105 34 220 76 116 41 291
104 390 139 99 35 236 84 305 110 69 26 170 62 225 82 167 59 165 53 23 103
-68 23 -170 60 -228 80 -761 268 -940 330 -942 329 -2 -1 -43 -16 -93 -34z"/>
<path d="M2226 7605 c-20 -16 -26 -27 -20 -36 5 -8 9 -25 9 -38 0 -22 4 -25
43 -26 49 -1 47 -3 56 48 6 31 4 38 -11 44 -10 3 -25 12 -33 19 -12 10 -20 8
-44 -11z"/>
<path d="M6813 7611 c-28 -14 -32 -20 -29 -52 4 -51 9 -55 58 -55 42 1 43 2
49 41 6 34 3 43 -18 62 -13 13 -25 22 -26 22 -1 -1 -16 -9 -34 -18z"/>
<path d="M1747 7190 c-15 -38 -17 -40 -59 -40 l-43 0 33 -26 c32 -26 33 -29
27 -77 l-7 -50 36 28 36 28 40 -27 c44 -29 47 -25 25 26 -14 34 -13 36 15 63
17 16 30 31 30 34 0 3 -17 6 -37 6 -34 0 -40 4 -55 38 -10 20 -20 37 -22 37
-1 0 -10 -18 -19 -40z"/>
<path d="M7319 7195 c-12 -33 -16 -35 -56 -35 -24 0 -43 -3 -43 -7 0 -5 14
-20 32 -34 l32 -27 -16 -41 c-19 -47 -16 -49 30 -21 l34 21 36 -27 35 -27 -6
44 c-5 40 -3 47 26 77 l31 32 -41 0 c-38 0 -42 2 -57 40 -9 22 -18 40 -20 40
-3 0 -10 -16 -17 -35z"/>
<path d="M3820 6927 l0 -216 33 -5 c191 -28 256 -42 361 -76 66 -23 171 -67
231 -99 l111 -59 57 34 c168 99 367 161 645 200 l32 5 0 214 c0 118 -2 215 -4
215 -5 0 -284 -98 -471 -165 -222 -80 -260 -92 -275 -87 -31 9 -488 174 -545
197 -33 13 -79 28 -103 35 -24 6 -50 14 -58 17 -12 4 -14 -27 -14 -210z"/>
<path d="M2527 6819 c11 -19 61 -101 110 -184 50 -82 125 -204 168 -270 42
-66 85 -132 94 -147 9 -16 20 -28 24 -28 5 0 0 15 -11 33 -40 67 -208 339
-242 392 -19 30 -59 93 -88 139 -28 47 -57 88 -64 92 -6 4 -2 -8 9 -27z"/>
<path d="M6423 6598 c-187 -296 -247 -397 -241 -403 5 -6 102 144 253 390 54
88 111 180 126 204 26 40 35 61 26 61 -2 0 -76 -114 -164 -252z"/>
<path d="M5657 6618 c-8 -19 -27 -77 -42 -129 -15 -52 -30 -101 -33 -109 -3
-10 -2 -12 5 -5 13 13 36 78 67 185 26 88 27 116 3 58z"/>
<path d="M1770 6387 c0 -13 712 -667 727 -667 16 0 -152 161 -406 388 -269
241 -321 287 -321 279z"/>
<path d="M7099 6187 c-272 -243 -496 -454 -488 -461 6 -6 191 157 389 343 74
70 171 160 215 200 123 114 130 121 120 120 -6 0 -112 -91 -236 -202z"/>
<path d="M4546 6213 c-8 -97 -6 -447 4 -538 4 -42 7 66 8 273 1 188 0 342 -2
342 -1 0 -6 -34 -10 -77z"/>
<path d="M3342 6010 c-76 -27 -118 -55 -159 -109 l-36 -46 6 39 c3 21 14 47
23 57 9 11 12 19 7 19 -32 0 -92 -104 -93 -160 -1 -19 -40 26 -40 46 0 8 -5
14 -11 14 -11 0 -8 -43 6 -87 6 -18 3 -23 -11 -23 -22 0 -109 -38 -103 -45 3
-2 24 1 48 6 24 5 45 8 48 6 2 -3 -18 -19 -45 -36 -49 -31 -102 -94 -102 -120
0 -8 10 -3 25 13 22 24 45 34 45 20 0 -3 -14 -22 -31 -43 -40 -51 -76 -171
-51 -171 4 0 14 16 21 35 18 50 31 43 24 -14 -7 -60 5 -161 19 -161 6 0 7 8 3
18 -4 10 -3 13 3 7 5 -5 17 -41 26 -80 13 -52 14 -71 5 -74 -6 -2 -20 -12 -31
-23 -26 -26 -19 -78 23 -168 39 -83 64 -110 103 -110 27 0 35 -7 59 -50 15
-27 46 -64 69 -82 22 -18 50 -43 62 -55 22 -22 24 -22 102 -8 104 19 231 19
339 0 l88 -16 26 24 c14 13 39 31 54 41 16 10 47 47 70 82 36 57 44 64 72 64
39 0 54 16 95 99 49 97 53 183 11 194 -18 4 -18 7 5 87 13 45 24 90 24 101 0
35 19 29 22 -8 3 -34 4 -32 16 28 8 45 9 81 3 115 -11 60 -7 66 16 25 25 -43
32 -39 22 12 -9 50 -25 91 -52 130 -27 40 -17 42 27 5 37 -31 38 -31 31 -7
-11 39 -38 71 -94 114 -55 41 -56 58 -2 30 17 -8 31 -12 31 -7 0 16 -45 51
-95 74 l-50 22 30 6 30 7 -25 10 c-14 6 -51 16 -83 23 -72 16 -80 28 -27 36
82 13 39 28 -117 40 -46 4 -83 10 -83 14 0 3 14 13 32 21 17 8 34 21 37 29 4
13 2 13 -13 1 -13 -11 -45 -13 -164 -8 -114 5 -160 4 -202 -8 l-55 -14 25 19
c32 25 12 25 -58 0z"/>
<path d="M1000 5819 c30 -17 100 -54 155 -81 55 -28 183 -96 285 -151 275
-148 771 -400 776 -394 10 10 -412 235 -914 486 -321 161 -428 210 -302 140z"/>
<path d="M7845 5701 c-682 -346 -963 -496 -951 -508 8 -8 1088 552 1231 638
80 49 -16 4 -280 -130z"/>
<path d="M5441 5789 c-145 -28 -299 -150 -370 -292 -62 -124 -95 -297 -70
-367 7 -20 8 -18 3 12 -2 20 -2 49 2 65 7 24 8 25 15 8 4 -11 8 -40 9 -65 1
-25 5 -56 9 -70 5 -19 2 -29 -14 -42 -27 -22 -25 -102 4 -178 25 -66 25 -60 1
-60 -31 0 -54 -46 -55 -109 -1 -40 -8 -66 -24 -91 -19 -30 -21 -44 -16 -92 5
-47 3 -58 -9 -58 -24 0 -50 -83 -42 -136 5 -41 3 -47 -21 -68 -24 -21 -28 -33
-31 -93 -4 -66 -3 -70 23 -87 14 -9 33 -16 42 -14 27 5 73 72 82 119 l9 44 1
-37 c1 -45 -13 -86 -42 -116 -19 -20 -21 -34 -22 -130 0 -97 -3 -113 -29 -169
-16 -35 -33 -63 -38 -63 -14 0 -8 24 18 70 29 51 42 157 27 225 -7 33 -14 41
-40 49 -28 7 -37 5 -73 -24 -53 -42 -90 -115 -89 -172 2 -30 3 -35 6 -15 7 42
23 21 23 -29 0 -26 -9 -62 -21 -86 -12 -23 -32 -70 -45 -104 -28 -75 -33 -68
110 -145 100 -53 119 -79 30 -40 -26 12 -48 20 -50 19 -1 -2 -10 -80 -19 -173
-12 -133 -21 -182 -40 -226 -38 -87 -48 -152 -42 -274 7 -135 27 -239 74 -372
l35 -102 -39 -48 c-42 -51 -94 -135 -137 -220 -15 -29 -28 -53 -30 -53 -2 0
-19 28 -36 63 -18 34 -43 77 -55 95 l-23 33 20 52 c56 148 118 462 118 600 0
69 -19 155 -50 222 -15 33 -23 84 -32 215 -10 148 -14 170 -27 164 -73 -30
-174 -63 -202 -66 l-34 -4 0 -135 c0 -74 2 -159 3 -189 2 -30 3 -93 3 -139 -1
-49 7 -123 18 -175 23 -109 47 -313 38 -323 -13 -12 -19 5 -28 84 -14 112 -50
293 -60 293 -4 0 -10 -9 -14 -19 -11 -35 -64 -100 -96 -116 -46 -24 -46 -11 0
30 85 77 113 204 96 431 -6 88 -10 100 -35 125 -25 26 -28 35 -34 141 -27 443
-97 623 -275 712 -36 19 -90 39 -119 45 -65 14 -311 14 -371 0 -104 -24 -221
-104 -276 -189 -60 -93 -99 -285 -120 -583 -5 -64 -14 -110 -26 -134 -11 -21
-19 -52 -19 -71 0 -23 -4 -32 -12 -29 -18 6 -11 83 12 127 12 25 21 80 30 190
23 299 66 465 145 558 19 22 35 44 35 49 0 14 -137 221 -183 278 -23 28 -42
52 -43 53 -5 7 -147 -48 -188 -72 -23 -13 -49 -33 -59 -44 -10 -11 -60 -143
-112 -293 -52 -151 -104 -302 -116 -336 -12 -34 -19 -69 -16 -77 10 -26 158
-105 255 -136 51 -17 97 -30 102 -30 6 0 10 29 10 65 0 36 4 65 9 65 10 0 21
-134 21 -272 0 -89 -3 -108 -15 -108 -12 0 -15 19 -15 110 0 107 -1 110 -22
110 -27 0 -91 19 -166 49 -39 16 -54 18 -57 8 -2 -6 -9 -61 -15 -122 -6 -60
-12 -110 -13 -111 -1 -1 -65 4 -142 12 -191 19 -366 32 -580 44 -99 5 -224 12
-277 15 -92 5 -98 4 -125 -20 l-28 -24 250 -1 c238 -1 336 -5 645 -30 352 -27
627 -73 880 -147 278 -80 536 -201 780 -366 97 -66 261 -201 326 -269 124
-129 244 -297 295 -414 l20 -44 51 98 c232 442 777 831 1403 1001 373 101 844
157 1408 168 l328 6 -23 22 c-23 21 -27 21 -213 14 -254 -10 -696 -43 -866
-65 l-46 -5 -7 123 c-4 67 -9 132 -12 144 -4 16 7 29 55 63 41 28 61 49 61 63
0 11 -18 63 -40 114 -22 52 -40 97 -40 100 0 14 -134 339 -152 370 -10 18 -34
44 -53 58 -46 35 -156 87 -168 79 -5 -3 -39 -66 -74 -140 l-64 -134 30 -34
c104 -119 151 -310 151 -618 0 -72 -2 -128 -5 -125 -3 3 -12 92 -20 199 -23
294 -35 338 -110 417 -77 84 -190 122 -354 122 -140 0 -271 -37 -329 -93 -71
-68 -103 -172 -126 -422 -12 -123 -14 -131 -15 -65 -2 123 18 300 41 369 16
51 33 77 77 122 69 69 135 96 275 112 175 19 324 -17 418 -102 58 -52 53 -31
-14 54 -51 64 -106 100 -192 127 -60 18 -82 20 -185 13 -200 -12 -280 -42
-367 -138 -56 -62 -89 -139 -109 -254 -18 -106 -39 -423 -28 -433 4 -5 17 -10
28 -13 15 -4 14 -5 -7 -6 -15 -1 -35 -11 -46 -26 -17 -21 -20 -46 -24 -176 -6
-185 0 -224 41 -261 35 -31 40 -48 13 -48 -10 0 -32 19 -50 43 l-33 42 3 203
c3 183 5 205 21 217 15 11 20 37 28 177 16 289 43 417 104 510 14 21 25 42 25
47 0 16 -140 180 -214 250 l-66 63 -34 -25 c-37 -28 -86 -45 -86 -29 0 5 14
15 30 22 50 21 90 77 90 128 0 40 -2 43 -22 37 -16 -5 -12 1 13 19 55 38 86
129 54 156 -13 10 -19 10 -33 -4 -21 -18 -37 -21 -26 -5 3 6 26 19 49 29 51
22 65 44 65 99 0 34 -4 41 -27 49 l-28 10 26 1 c37 1 79 37 79 67 0 13 5 24
10 24 19 0 10 -49 -15 -78 -22 -26 -24 -34 -15 -58 28 -72 124 -153 164 -138
15 6 20 -5 32 -69 5 -29 10 -37 22 -32 55 21 208 37 315 33 l117 -5 6 38 c4
24 13 41 24 44 27 9 97 89 122 140 19 40 26 45 54 45 38 0 64 31 100 119 30
72 31 125 3 144 -18 13 -19 19 -10 53 5 22 13 74 17 117 4 43 8 76 10 74 2 -2
8 -28 13 -58 10 -53 10 -52 7 26 -7 159 -68 289 -187 399 -60 56 -166 118
-224 130 -49 10 -287 14 -334 5z m-1741 -1779 c144 -19 251 -91 301 -204 35
-80 59 -262 58 -439 0 -89 -2 -157 -4 -152 -2 6 -9 89 -14 185 -17 269 -44
390 -106 466 -70 85 -180 124 -357 124 -204 0 -309 -30 -388 -112 -70 -73
-102 -193 -120 -458 -13 -175 -29 -246 -30 -125 0 177 33 419 70 503 78 176
286 251 590 212z m1160 -235 c0 -27 -60 -137 -73 -132 -15 5 -51 66 -44 73 3
3 14 -11 25 -32 l19 -37 27 58 c14 31 26 64 26 71 0 8 5 14 10 14 6 0 10 -7
10 -15z m-1039 -115 c58 -11 99 -42 98 -74 0 -21 -1 -21 -11 1 -21 43 -55 48
-343 48 -148 0 -282 -3 -297 -8 -36 -10 -59 -46 -74 -116 l-12 -56 -1 48 c-2
98 38 144 137 157 88 11 443 11 503 0z m2533 -310 c3 -85 7 -168 8 -185 2 -21
-1 -30 -12 -30 -10 0 -17 15 -22 50 -4 28 -8 59 -10 70 -4 26 12 237 19 248 3
5 7 7 8 5 2 -2 6 -73 9 -158z m-1314 -165 c-14 -151 -6 -204 41 -297 23 -45 8
-51 -18 -8 -9 17 -20 30 -24 30 -10 0 -29 -75 -29 -119 0 -48 22 -106 51 -137
11 -12 16 -24 11 -28 -8 -5 -44 35 -68 77 -15 27 -20 15 -39 -93 -9 -52 -21
-99 -27 -105 -15 -15 -3 110 23 225 13 56 23 140 24 205 2 61 10 164 19 230 8
66 18 161 21 210 4 50 10 97 13 105 13 29 14 -156 2 -295z m998 263 c51 -9 92
-36 92 -58 0 -6 -13 -1 -30 11 -25 19 -48 23 -157 30 -193 11 -400 -10 -447
-44 -22 -16 -34 -81 -36 -182 0 -38 -5 -77 -11 -85 -7 -11 -9 25 -7 118 l3
134 32 28 c18 16 51 34 74 40 98 27 367 31 487 8z"/>
<path d="M6171 5144 c0 -11 3 -14 6 -6 3 7 2 16 -1 19 -3 4 -6 -2 -5 -13z"/>
<path d="M978 4873 c7 -3 16 -2 19 1 4 3 -2 6 -13 5 -11 0 -14 -3 -6 -6z"/>
<path d="M1050 4855 c54 -15 700 -172 889 -215 113 -27 158 -32 140 -17 -12
10 -588 147 -937 223 -119 26 -167 30 -92 9z"/>
<path d="M7965 4846 c-55 -13 -143 -33 -195 -45 -52 -12 -153 -36 -225 -52
-166 -38 -495 -119 -515 -126 -8 -3 -10 -7 -4 -9 14 -6 341 68 669 149 143 36
293 73 333 83 70 16 90 25 55 23 -10 0 -63 -11 -118 -23z"/>
<path d="M3325 4584 c-84 -13 -92 -16 -123 -51 -65 -73 -66 -81 -19 -144 23
-31 65 -91 94 -134 l51 -77 15 29 c37 69 106 106 202 106 87 0 143 -26 182
-84 24 -36 29 -39 38 -24 5 9 38 60 73 113 92 139 88 124 43 185 -32 43 -48
56 -83 66 -122 33 -317 39 -473 15z"/>
<path d="M5480 4468 c-103 -21 -147 -38 -175 -68 l-29 -30 90 -93 c50 -50 104
-108 121 -129 l31 -36 23 36 c73 112 247 136 337 46 19 -19 36 -34 38 -34 2 0
27 46 55 101 l51 102 -48 48 c-41 42 -54 49 -109 58 -74 13 -322 13 -385 -1z"/>
<path d="M3962 4451 c-5 -3 -48 -66 -96 -139 -78 -122 -104 -170 -94 -176 1
-1 34 -15 72 -32 39 -16 73 -30 77 -32 4 -2 21 23 39 55 18 32 64 105 102 162
40 59 66 107 61 112 -15 15 -150 57 -161 50z"/>
<path d="M3005 4436 c-22 -8 -53 -19 -69 -25 l-29 -12 30 -32 c31 -31 190
-254 212 -295 l11 -21 36 24 c19 13 52 29 72 36 20 6 41 15 46 20 9 8 -108
194 -176 282 -33 41 -61 46 -133 23z"/>
<path d="M5995 4249 c-36 -72 -65 -135 -65 -139 0 -7 141 -82 146 -77 4 5 144
287 144 291 0 5 -93 40 -132 50 -27 6 -30 3 -93 -125z"/>
<path d="M4133 4338 c-25 -29 -98 -142 -146 -229 l-36 -66 25 -24 c102 -96
157 -289 170 -599 6 -125 10 -159 24 -177 l18 -23 5 28 c3 15 9 79 13 142 8
134 23 181 24 73 0 -86 -2 -86 118 -48 74 23 232 114 232 132 0 5 -12 46 -26
93 -15 47 -58 195 -96 330 -48 167 -78 256 -96 279 -16 21 -51 45 -96 66 -101
48 -109 49 -133 23z"/>
<path d="M5148 4342 c-81 -29 -82 -35 -7 -102 54 -48 116 -117 220 -243 3 -5
34 10 68 32 34 22 67 41 74 44 17 5 -27 60 -146 184 -111 114 -118 117 -209
85z"/>
<path d="M3459 4255 c-55 -18 -109 -64 -109 -94 0 -12 4 -21 10 -21 9 0 13 4
50 50 l20 25 -10 -27 c-5 -16 -6 -28 -2 -29 36 -6 238 5 243 13 4 5 9 3 12 -6
4 -9 18 -16 32 -16 l26 0 -23 41 c-12 23 -36 48 -52 56 -42 22 -142 26 -197 8z"/>
<path d="M5674 4193 c-28 -5 -51 -31 -59 -65 l-7 -27 114 6 c62 3 115 7 116 9
10 8 -33 73 -51 78 -24 6 -79 6 -113 -1z"/>
<path d="M5834 4175 c4 -11 13 -32 18 -47 11 -31 38 -38 38 -10 -1 19 -15 39
-44 62 -18 14 -19 14 -12 -5z"/>
<path d="M5562 4138 c-15 -20 -24 -58 -13 -58 27 0 41 14 41 41 0 31 -11 37
-28 17z"/>
<path d="M2015 4033 c-22 -2 -202 -17 -400 -33 -365 -30 -440 -38 -432 -47 5
-5 492 30 730 52 86 8 159 15 162 15 3 0 5 5 5 10 0 6 -6 9 -12 8 -7 -1 -31
-3 -53 -5z"/>
<path d="M7025 4030 c-3 -5 -3 -10 2 -10 4 0 73 -7 153 -15 195 -19 731 -57
737 -52 2 3 -15 7 -39 11 -49 7 -558 52 -693 61 -49 3 -104 8 -122 11 -17 2
-34 0 -38 -6z"/>
<path d="M7275 3059 c-174 -7 -516 -37 -524 -45 -7 -7 32 -5 214 11 259 22
563 19 878 -11 71 -7 87 3 45 30 -29 17 -369 26 -613 15z"/>
<path d="M1244 3054 c-22 -5 -65 -44 -48 -44 5 0 101 7 214 15 237 17 464 19
670 5 251 -16 325 -20 315 -15 -5 2 -89 12 -185 21 -168 15 -915 29 -966 18z"/>
<path d="M6698 3003 c6 -2 18 -2 25 0 6 3 1 5 -13 5 -14 0 -19 -2 -12 -5z"/>
<path d="M1580 2903 c-134 -4 -464 -24 -500 -29 -22 -3 -42 -15 -53 -30 l-19
-25 39 5 c132 18 458 28 741 23 328 -6 399 -11 690 -53 654 -93 1299 -356
1697 -693 50 -41 83 -67 75 -57 -19 24 -199 179 -270 233 -93 70 -258 171
-390 237 -373 190 -803 312 -1285 366 -107 11 -505 31 -590 28 -33 -1 -94 -3
-135 -5z"/>
<path d="M7079 2899 c-769 -39 -1422 -244 -1929 -603 -81 -57 -290 -233 -290
-244 0 -2 15 7 33 22 61 50 252 192 292 217 22 14 99 58 170 97 450 246 1043
405 1690 452 258 18 775 11 999 -15 l48 -6 -21 29 c-20 29 -21 29 -153 36 -73
3 -203 11 -288 16 -175 11 -338 10 -551 -1z"/>
<path d="M444 2829 c-17 -5 -39 -18 -48 -28 -17 -19 -17 -23 25 -98 241 -440
423 -719 620 -948 89 -104 332 -346 434 -432 393 -334 914 -618 1484 -809 415
-139 909 -235 1300 -251 l143 -6 -7 84 c-19 230 -90 475 -192 664 -71 133
-137 220 -248 330 -242 239 -528 379 -962 470 -346 73 -583 156 -803 280 -177
101 -209 115 -264 115 -88 0 -146 -54 -146 -135 0 -79 59 -154 202 -261 54
-40 128 -90 164 -110 73 -41 258 -124 319 -144 99 -31 274 -104 329 -137 68
-40 139 -93 133 -100 -3 -2 -40 7 -83 21 -44 14 -172 45 -285 70 -586 127
-962 317 -1333 676 -133 128 -242 260 -389 470 -67 96 -142 195 -167 220 -63
63 -141 84 -226 59z"/>
<path d="M8516 2825 c-55 -19 -94 -61 -214 -230 -127 -178 -235 -316 -322
-409 -285 -304 -561 -497 -900 -629 -194 -76 -285 -101 -630 -178 -80 -17
-169 -40 -199 -50 -92 -32 -97 -20 -13 38 77 55 133 82 292 142 74 29 164 64
200 78 252 102 524 291 575 400 24 50 17 134 -15 168 -49 52 -141 58 -228 13
-26 -14 -87 -48 -137 -78 -184 -109 -416 -195 -680 -254 -277 -62 -337 -78
-459 -117 -422 -138 -735 -402 -929 -785 -72 -142 -132 -381 -153 -603 l-6
-74 153 6 c359 14 892 115 1274 242 613 203 1141 498 1559 871 346 308 616
651 872 1106 125 221 164 299 158 309 -11 19 -88 49 -124 48 -19 0 -52 -6 -74
-14z"/>
<path d="M1355 2733 c-95 -3 -345 -22 -397 -30 l-37 -5 41 -59 41 -58 66 -6
c202 -18 294 -30 464 -61 240 -43 331 -67 772 -199 61 -18 173 -52 250 -75
255 -76 618 -197 765 -254 182 -72 437 -198 645 -319 147 -85 162 -96 181
-137 12 -25 38 -61 59 -80 l36 -35 309 0 309 0 49 48 c28 27 54 63 58 79 8 26
33 44 164 120 285 166 447 244 715 345 143 53 476 165 665 221 74 23 232 70
350 106 494 148 923 236 1155 236 29 0 60 3 69 6 15 6 101 113 94 119 -10 9
-204 26 -413 36 -679 31 -1373 -61 -1892 -251 -448 -164 -787 -357 -1072 -613
-79 -70 -189 -187 -224 -238 -16 -22 -17 -20 -159 123 -245 248 -432 382 -766
547 -357 177 -625 266 -1077 357 -116 23 -449 63 -620 74 -145 9 -388 10 -600
3z"/>
<path d="M5789 208 c-12 -18 -38 -50 -56 -71 -18 -20 -33 -41 -33 -47 0 -5 19
-27 43 -49 33 -32 50 -41 78 -41 32 0 41 6 78 53 23 28 43 55 44 59 1 3 -28
34 -65 67 l-66 61 -23 -32z"/>
<path d="M3725 10 c-3 -5 -1 -10 4 -10 6 0 11 5 11 10 0 6 -2 10 -4 10 -3 0
-8 -4 -11 -10z"/>
</g>
</svg>
